<mxfile host="app.diagrams.net" modified="2021-08-04T00:04:26.058Z" agent="5.0 (X11)" etag="OHK6qnikW_D27_NaIqUx" version="14.9.3" type="github">
  <diagram id="UIdEuoUsaXTuPdmNOl_K" name="Page-1">
    <mxGraphModel dx="2636" dy="896" grid="1" gridSize="10" guides="1" tooltips="1" connect="1" arrows="1" fold="1" page="1" pageScale="1" pageWidth="850" pageHeight="1100" math="1" shadow="0">
      <root>
        <mxCell id="0" />
        <mxCell id="1" parent="0" />
        <mxCell id="jX1o0PaKv8pk1o8IosKb-1" value="Receivable management" style="rounded=1;whiteSpace=wrap;html=1;" parent="1" vertex="1">
          <mxGeometry x="360" width="120" height="40" as="geometry" />
        </mxCell>
        <mxCell id="jX1o0PaKv8pk1o8IosKb-22" style="edgeStyle=orthogonalEdgeStyle;rounded=0;orthogonalLoop=1;jettySize=auto;html=1;" parent="1" source="jX1o0PaKv8pk1o8IosKb-2" target="jX1o0PaKv8pk1o8IosKb-3" edge="1">
          <mxGeometry relative="1" as="geometry" />
        </mxCell>
        <mxCell id="jX1o0PaKv8pk1o8IosKb-23" style="edgeStyle=orthogonalEdgeStyle;rounded=0;orthogonalLoop=1;jettySize=auto;html=1;" parent="1" source="jX1o0PaKv8pk1o8IosKb-2" target="jX1o0PaKv8pk1o8IosKb-4" edge="1">
          <mxGeometry relative="1" as="geometry" />
        </mxCell>
        <mxCell id="jX1o0PaKv8pk1o8IosKb-2" value="Debtors" style="rounded=1;whiteSpace=wrap;html=1;" parent="1" vertex="1">
          <mxGeometry x="360" y="120" width="120" height="40" as="geometry" />
        </mxCell>
        <mxCell id="jX1o0PaKv8pk1o8IosKb-6" style="edgeStyle=orthogonalEdgeStyle;rounded=0;orthogonalLoop=1;jettySize=auto;html=1;" parent="1" source="jX1o0PaKv8pk1o8IosKb-3" target="jX1o0PaKv8pk1o8IosKb-5" edge="1">
          <mxGeometry relative="1" as="geometry" />
        </mxCell>
        <mxCell id="jX1o0PaKv8pk1o8IosKb-3" value="Debtors on sales" style="rounded=1;whiteSpace=wrap;html=1;" parent="1" vertex="1">
          <mxGeometry x="175" y="200" width="120" height="40" as="geometry" />
        </mxCell>
        <mxCell id="jX1o0PaKv8pk1o8IosKb-9" style="edgeStyle=orthogonalEdgeStyle;rounded=0;orthogonalLoop=1;jettySize=auto;html=1;" parent="1" source="jX1o0PaKv8pk1o8IosKb-4" target="jX1o0PaKv8pk1o8IosKb-7" edge="1">
          <mxGeometry relative="1" as="geometry" />
        </mxCell>
        <mxCell id="jX1o0PaKv8pk1o8IosKb-4" value="Debtors on cost" style="rounded=1;whiteSpace=wrap;html=1;" parent="1" vertex="1">
          <mxGeometry x="550" y="200" width="120" height="40" as="geometry" />
        </mxCell>
        <mxCell id="jX1o0PaKv8pk1o8IosKb-5" value="`\text{Debtors on sales} = \text{Cr.sales} xx (\text{Cr.period}/\text{12/365/52})`" style="rounded=1;whiteSpace=wrap;html=1;" parent="1" vertex="1">
          <mxGeometry x="70" y="260" width="330" height="70" as="geometry" />
        </mxCell>
        <mxCell id="jX1o0PaKv8pk1o8IosKb-20" style="edgeStyle=orthogonalEdgeStyle;rounded=0;orthogonalLoop=1;jettySize=auto;html=1;" parent="1" source="jX1o0PaKv8pk1o8IosKb-7" target="jX1o0PaKv8pk1o8IosKb-10" edge="1">
          <mxGeometry relative="1" as="geometry" />
        </mxCell>
        <mxCell id="jX1o0PaKv8pk1o8IosKb-7" value="`\text{Debtors on sales} = \text{Total cost} xx (\text{Cr.period}/\text{12/365/52})`" style="rounded=1;whiteSpace=wrap;html=1;" parent="1" vertex="1">
          <mxGeometry x="440" y="260" width="340" height="70" as="geometry" />
        </mxCell>
        <mxCell id="jX1o0PaKv8pk1o8IosKb-13" style="edgeStyle=orthogonalEdgeStyle;rounded=0;orthogonalLoop=1;jettySize=auto;html=1;" parent="1" source="jX1o0PaKv8pk1o8IosKb-10" target="jX1o0PaKv8pk1o8IosKb-11" edge="1">
          <mxGeometry relative="1" as="geometry" />
        </mxCell>
        <mxCell id="jX1o0PaKv8pk1o8IosKb-14" style="edgeStyle=orthogonalEdgeStyle;rounded=0;orthogonalLoop=1;jettySize=auto;html=1;" parent="1" source="jX1o0PaKv8pk1o8IosKb-10" target="jX1o0PaKv8pk1o8IosKb-12" edge="1">
          <mxGeometry relative="1" as="geometry" />
        </mxCell>
        <mxCell id="jX1o0PaKv8pk1o8IosKb-10" value="Total cost" style="rounded=1;whiteSpace=wrap;html=1;" parent="1" vertex="1">
          <mxGeometry x="550" y="350" width="120" height="40" as="geometry" />
        </mxCell>
        <mxCell id="jX1o0PaKv8pk1o8IosKb-18" style="edgeStyle=orthogonalEdgeStyle;rounded=0;orthogonalLoop=1;jettySize=auto;html=1;" parent="1" source="jX1o0PaKv8pk1o8IosKb-11" target="jX1o0PaKv8pk1o8IosKb-21" edge="1">
          <mxGeometry relative="1" as="geometry">
            <mxPoint x="540" y="490" as="targetPoint" />
          </mxGeometry>
        </mxCell>
        <mxCell id="jX1o0PaKv8pk1o8IosKb-11" value="Variable cost" style="rounded=1;whiteSpace=wrap;html=1;" parent="1" vertex="1">
          <mxGeometry x="480" y="430" width="120" height="40" as="geometry" />
        </mxCell>
        <mxCell id="jX1o0PaKv8pk1o8IosKb-19" style="edgeStyle=orthogonalEdgeStyle;rounded=0;orthogonalLoop=1;jettySize=auto;html=1;" parent="1" source="jX1o0PaKv8pk1o8IosKb-12" target="jX1o0PaKv8pk1o8IosKb-17" edge="1">
          <mxGeometry relative="1" as="geometry" />
        </mxCell>
        <mxCell id="jX1o0PaKv8pk1o8IosKb-12" value="Fixed cost" style="rounded=1;whiteSpace=wrap;html=1;" parent="1" vertex="1">
          <mxGeometry x="620" y="430" width="120" height="40" as="geometry" />
        </mxCell>
        <mxCell id="jX1o0PaKv8pk1o8IosKb-17" value="Irrelavent, Ignore" style="rounded=1;whiteSpace=wrap;html=1;" parent="1" vertex="1">
          <mxGeometry x="620" y="490" width="120" height="40" as="geometry" />
        </mxCell>
        <mxCell id="dmRQIC54Is3TJMsPzp_G-64" style="edgeStyle=orthogonalEdgeStyle;rounded=0;orthogonalLoop=1;jettySize=auto;html=1;entryX=0.5;entryY=0;entryDx=0;entryDy=0;" parent="1" source="jX1o0PaKv8pk1o8IosKb-21" target="dmRQIC54Is3TJMsPzp_G-56" edge="1">
          <mxGeometry relative="1" as="geometry" />
        </mxCell>
        <mxCell id="dmRQIC54Is3TJMsPzp_G-65" style="edgeStyle=orthogonalEdgeStyle;rounded=0;orthogonalLoop=1;jettySize=auto;html=1;" parent="1" source="jX1o0PaKv8pk1o8IosKb-21" target="dmRQIC54Is3TJMsPzp_G-57" edge="1">
          <mxGeometry relative="1" as="geometry" />
        </mxCell>
        <mxCell id="jX1o0PaKv8pk1o8IosKb-21" value="`\text{Debtors on sales} = \text{Variable cost} xx (\text{Cr.period}/\text{12/365/52})`" style="rounded=1;whiteSpace=wrap;html=1;" parent="1" vertex="1">
          <mxGeometry x="360" y="550" width="360" height="70" as="geometry" />
        </mxCell>
        <mxCell id="jX1o0PaKv8pk1o8IosKb-24" value="&lt;div dir=&quot;ltr&quot; style=&quot;margin-left: 0pt&quot; id=&quot;docs-internal-guid-9cd4c7f6-7fff-7b18-153d-72f92d299515&quot; align=&quot;left&quot;&gt;&lt;table style=&quot;border: none ; border-collapse: collapse&quot;&gt;&lt;colgroup&gt;&lt;col width=&quot;378&quot;&gt;&lt;col width=&quot;111&quot;&gt;&lt;col width=&quot;112&quot;&gt;&lt;/colgroup&gt;&lt;tbody&gt;&lt;tr style=&quot;height: 21pt&quot;&gt;&lt;td rowspan=&quot;2&quot; style=&quot;border-left: solid #000000 1pt ; border-right: solid #000000 1pt ; border-bottom: solid #000000 1pt ; border-top: solid #000000 1pt ; vertical-align: top ; background-color: #ffffff ; padding: 5pt 5pt 5pt 5pt ; overflow: hidden ; overflow-wrap: break-word&quot;&gt;&lt;p dir=&quot;ltr&quot; style=&quot;line-height: 1.2 ; margin-top: 0pt ; margin-bottom: 0pt&quot;&gt;&lt;span style=&quot;font-size: 11pt ; font-family: &amp;#34;arial&amp;#34; ; color: rgb(0 , 0 , 0) ; background-color: transparent ; font-weight: 400 ; font-style: normal ; font-variant: normal ; text-decoration: none ; vertical-align: baseline&quot;&gt;Particulars&lt;/span&gt;&lt;/p&gt;&lt;/td&gt;&lt;td style=&quot;border-left: solid #000000 1pt ; border-right: solid #000000 1pt ; border-bottom: solid #000000 1pt ; border-top: solid #000000 1pt ; vertical-align: top ; background-color: #ffffff ; padding: 5pt 5pt 5pt 5pt ; overflow: hidden ; overflow-wrap: break-word&quot;&gt;&lt;p dir=&quot;ltr&quot; style=&quot;line-height: 1.2 ; margin-top: 0pt ; margin-bottom: 0pt&quot;&gt;&lt;span style=&quot;font-size: 11pt ; font-family: &amp;#34;arial&amp;#34; ; color: rgb(0 , 0 , 0) ; background-color: transparent ; font-weight: 400 ; font-style: normal ; font-variant: normal ; text-decoration: none ; vertical-align: baseline&quot;&gt;Existing&lt;/span&gt;&lt;/p&gt;&lt;/td&gt;&lt;td style=&quot;border-left: solid #000000 1pt ; border-right: solid #000000 1pt ; border-bottom: solid #000000 1pt ; border-top: solid #000000 1pt ; vertical-align: top ; background-color: #ffffff ; padding: 5pt 5pt 5pt 5pt ; overflow: hidden ; overflow-wrap: break-word&quot;&gt;&lt;p dir=&quot;ltr&quot; style=&quot;line-height: 1.2 ; margin-top: 0pt ; margin-bottom: 0pt&quot;&gt;&lt;span style=&quot;font-size: 11pt ; font-family: &amp;#34;arial&amp;#34; ; color: rgb(0 , 0 , 0) ; background-color: transparent ; font-weight: 400 ; font-style: normal ; font-variant: normal ; text-decoration: none ; vertical-align: baseline&quot;&gt;Proposed&lt;/span&gt;&lt;/p&gt;&lt;/td&gt;&lt;/tr&gt;&lt;tr style=&quot;height: 21pt&quot;&gt;&lt;td style=&quot;border-left: solid #000000 1pt ; border-right: solid #000000 1pt ; border-bottom: solid #000000 1pt ; border-top: solid #000000 1pt ; vertical-align: top ; background-color: #ffffff ; padding: 5pt 5pt 5pt 5pt ; overflow: hidden ; overflow-wrap: break-word&quot;&gt;&lt;p dir=&quot;ltr&quot; style=&quot;line-height: 1.2 ; margin-top: 0pt ; margin-bottom: 0pt&quot;&gt;&lt;span style=&quot;font-size: 11pt ; font-family: &amp;#34;arial&amp;#34; ; color: rgb(0 , 0 , 0) ; background-color: transparent ; font-weight: 400 ; font-style: normal ; font-variant: normal ; text-decoration: none ; vertical-align: baseline&quot;&gt;X days credit&lt;/span&gt;&lt;/p&gt;&lt;/td&gt;&lt;td style=&quot;border-left: solid #000000 1pt ; border-right: solid #000000 1pt ; border-bottom: solid #000000 1pt ; border-top: solid #000000 1pt ; vertical-align: top ; background-color: #ffffff ; padding: 5pt 5pt 5pt 5pt ; overflow: hidden ; overflow-wrap: break-word&quot;&gt;&lt;p dir=&quot;ltr&quot; style=&quot;line-height: 1.2 ; margin-top: 0pt ; margin-bottom: 0pt&quot;&gt;&lt;span style=&quot;font-size: 11pt ; font-family: &amp;#34;arial&amp;#34; ; color: rgb(0 , 0 , 0) ; background-color: transparent ; font-weight: 400 ; font-style: normal ; font-variant: normal ; text-decoration: none ; vertical-align: baseline&quot;&gt;Y days credit&lt;/span&gt;&lt;/p&gt;&lt;/td&gt;&lt;/tr&gt;&lt;tr style=&quot;height: 0pt&quot;&gt;&lt;td style=&quot;border-left: solid #000000 1pt ; border-right: solid #000000 1pt ; border-bottom: solid #000000 1pt ; border-top: solid #000000 1pt ; vertical-align: top ; background-color: #ffffff ; padding: 5pt 5pt 5pt 5pt ; overflow: hidden ; overflow-wrap: break-word&quot;&gt;&lt;p dir=&quot;ltr&quot; style=&quot;line-height: 1.2 ; margin-top: 0pt ; margin-bottom: 0pt&quot;&gt;&lt;span style=&quot;font-size: 11pt ; font-family: &amp;#34;arial&amp;#34; ; color: rgb(0 , 0 , 0) ; background-color: transparent ; font-weight: 400 ; font-style: normal ; font-variant: normal ; text-decoration: none ; vertical-align: baseline&quot;&gt;Credit sales P.a&lt;/span&gt;&lt;/p&gt;&lt;/td&gt;&lt;td style=&quot;border-left: solid #000000 1pt ; border-right: solid #000000 1pt ; border-bottom: solid #000000 1pt ; border-top: solid #000000 1pt ; vertical-align: top ; background-color: #ffffff ; padding: 5pt 5pt 5pt 5pt ; overflow: hidden ; overflow-wrap: break-word&quot;&gt;&lt;p dir=&quot;ltr&quot; style=&quot;line-height: 1.2 ; margin-top: 0pt ; margin-bottom: 0pt&quot;&gt;&lt;span style=&quot;font-size: 11pt ; font-family: &amp;#34;arial&amp;#34; ; color: rgb(0 , 0 , 0) ; background-color: transparent ; font-weight: 400 ; font-style: normal ; font-variant: normal ; text-decoration: none ; vertical-align: baseline&quot;&gt;xxxx&lt;/span&gt;&lt;/p&gt;&lt;/td&gt;&lt;td style=&quot;border-left: solid #000000 1pt ; border-right: solid #000000 1pt ; border-bottom: solid #000000 1pt ; border-top: solid #000000 1pt ; vertical-align: top ; background-color: #ffffff ; padding: 5pt 5pt 5pt 5pt ; overflow: hidden ; overflow-wrap: break-word&quot;&gt;&lt;p dir=&quot;ltr&quot; style=&quot;line-height: 1.2 ; margin-top: 0pt ; margin-bottom: 0pt&quot;&gt;&lt;span style=&quot;font-size: 11pt ; font-family: &amp;#34;arial&amp;#34; ; color: rgb(0 , 0 , 0) ; background-color: transparent ; font-weight: 400 ; font-style: normal ; font-variant: normal ; text-decoration: none ; vertical-align: baseline&quot;&gt;yyyy&lt;/span&gt;&lt;/p&gt;&lt;/td&gt;&lt;/tr&gt;&lt;tr style=&quot;height: 0pt&quot;&gt;&lt;td style=&quot;border-left: solid #000000 1pt ; border-right: solid #000000 1pt ; border-bottom: solid #000000 1pt ; border-top: solid #000000 1pt ; vertical-align: top ; background-color: #ffffff ; padding: 5pt 5pt 5pt 5pt ; overflow: hidden ; overflow-wrap: break-word&quot;&gt;&lt;p dir=&quot;ltr&quot; style=&quot;line-height: 1.2 ; margin-top: 0pt ; margin-bottom: 0pt&quot;&gt;&lt;span style=&quot;font-size: 11pt ; font-family: &amp;#34;arial&amp;#34; ; color: rgb(0 , 0 , 0) ; background-color: transparent ; font-weight: 400 ; font-style: normal ; font-variant: normal ; text-decoration: none ; vertical-align: baseline&quot;&gt;(-) Variable cost&lt;/span&gt;&lt;/p&gt;&lt;/td&gt;&lt;td style=&quot;border-left: solid #000000 1pt ; border-right: solid #000000 1pt ; border-bottom: solid #000000 1pt ; border-top: solid #000000 1pt ; vertical-align: top ; background-color: #ffffff ; padding: 5pt 5pt 5pt 5pt ; overflow: hidden ; overflow-wrap: break-word&quot;&gt;&lt;p dir=&quot;ltr&quot; style=&quot;line-height: 1.2 ; margin-top: 0pt ; margin-bottom: 0pt&quot;&gt;&lt;span style=&quot;font-size: 11pt ; font-family: &amp;#34;arial&amp;#34; ; color: rgb(0 , 0 , 0) ; background-color: transparent ; font-weight: 400 ; font-style: normal ; font-variant: normal ; text-decoration: none ; vertical-align: baseline&quot;&gt;(x)&lt;/span&gt;&lt;/p&gt;&lt;/td&gt;&lt;td style=&quot;border-left: solid #000000 1pt ; border-right: solid #000000 1pt ; border-bottom: solid #000000 1pt ; border-top: solid #000000 1pt ; vertical-align: top ; background-color: #ffffff ; padding: 5pt 5pt 5pt 5pt ; overflow: hidden ; overflow-wrap: break-word&quot;&gt;&lt;p dir=&quot;ltr&quot; style=&quot;line-height: 1.2 ; margin-top: 0pt ; margin-bottom: 0pt&quot;&gt;&lt;span style=&quot;font-size: 11pt ; font-family: &amp;#34;arial&amp;#34; ; color: rgb(0 , 0 , 0) ; background-color: transparent ; font-weight: 400 ; font-style: normal ; font-variant: normal ; text-decoration: none ; vertical-align: baseline&quot;&gt;(y)&lt;/span&gt;&lt;/p&gt;&lt;/td&gt;&lt;/tr&gt;&lt;tr style=&quot;height: 0pt&quot;&gt;&lt;td style=&quot;border-left: solid #000000 1pt ; border-right: solid #000000 1pt ; border-bottom: solid #000000 1pt ; border-top: solid #000000 1pt ; vertical-align: top ; background-color: #ffffff ; padding: 5pt 5pt 5pt 5pt ; overflow: hidden ; overflow-wrap: break-word&quot;&gt;&lt;p dir=&quot;ltr&quot; style=&quot;line-height: 1.2 ; margin-top: 0pt ; margin-bottom: 0pt&quot;&gt;&lt;span style=&quot;font-size: 11pt ; font-family: &amp;#34;arial&amp;#34; ; color: rgb(0 , 0 , 0) ; background-color: transparent ; font-weight: 400 ; font-style: normal ; font-variant: normal ; text-decoration: none ; vertical-align: baseline&quot;&gt;(-) Fixed cost (Ignore)&lt;/span&gt;&lt;/p&gt;&lt;/td&gt;&lt;td style=&quot;border-left: solid #000000 1pt ; border-right: solid #000000 1pt ; border-bottom: solid #000000 1pt ; border-top: solid #000000 1pt ; vertical-align: top ; background-color: #ffffff ; padding: 5pt 5pt 5pt 5pt ; overflow: hidden ; overflow-wrap: break-word&quot;&gt;&lt;p dir=&quot;ltr&quot; style=&quot;line-height: 1.2 ; margin-top: 0pt ; margin-bottom: 0pt&quot;&gt;&lt;span style=&quot;font-size: 11pt ; font-family: &amp;#34;arial&amp;#34; ; color: rgb(0 , 0 , 0) ; background-color: transparent ; font-weight: 400 ; font-style: normal ; font-variant: normal ; text-decoration: none ; vertical-align: baseline&quot;&gt;-&lt;/span&gt;&lt;/p&gt;&lt;/td&gt;&lt;td style=&quot;border-left: solid #000000 1pt ; border-right: solid #000000 1pt ; border-bottom: solid #000000 1pt ; border-top: solid #000000 1pt ; vertical-align: top ; background-color: #ffffff ; padding: 5pt 5pt 5pt 5pt ; overflow: hidden ; overflow-wrap: break-word&quot;&gt;&lt;p dir=&quot;ltr&quot; style=&quot;line-height: 1.2 ; margin-top: 0pt ; margin-bottom: 0pt&quot;&gt;&lt;span style=&quot;font-size: 11pt ; font-family: &amp;#34;arial&amp;#34; ; color: rgb(0 , 0 , 0) ; background-color: transparent ; font-weight: 400 ; font-style: normal ; font-variant: normal ; text-decoration: none ; vertical-align: baseline&quot;&gt;-&lt;/span&gt;&lt;/p&gt;&lt;/td&gt;&lt;/tr&gt;&lt;tr style=&quot;height: 0pt&quot;&gt;&lt;td style=&quot;border-left: solid #000000 1pt ; border-right: solid #000000 1pt ; border-bottom: solid #000000 1pt ; border-top: solid #000000 1pt ; vertical-align: top ; background-color: #ffffff ; padding: 5pt 5pt 5pt 5pt ; overflow: hidden ; overflow-wrap: break-word&quot;&gt;&lt;p dir=&quot;ltr&quot; style=&quot;line-height: 1.2 ; margin-top: 0pt ; margin-bottom: 0pt&quot;&gt;&lt;span style=&quot;font-size: 11pt ; font-family: &amp;#34;arial&amp;#34; ; color: rgb(0 , 0 , 0) ; background-color: transparent ; font-weight: 400 ; font-style: normal ; font-variant: normal ; text-decoration: none ; vertical-align: baseline&quot;&gt;(-) Bad debts (@x% calculated on sales)&lt;br&gt;&lt;/span&gt;&lt;/p&gt;&lt;p dir=&quot;ltr&quot; style=&quot;line-height: 1.2 ; margin-top: 0pt ; margin-bottom: 0pt&quot;&gt;&lt;span style=&quot;font-size: 11pt ; font-family: &amp;#34;arial&amp;#34; ; color: rgb(0 , 0 , 0) ; background-color: transparent ; font-weight: 400 ; font-style: normal ; font-variant: normal ; text-decoration: none ; vertical-align: baseline&quot;&gt;(-) Discount (if any)&lt;br&gt;&lt;/span&gt;&lt;/p&gt;&lt;/td&gt;&lt;td style=&quot;border-left: solid #000000 1pt ; border-right: solid #000000 1pt ; border-bottom: solid #000000 1pt ; border-top: solid #000000 1pt ; vertical-align: top ; background-color: #ffffff ; padding: 5pt 5pt 5pt 5pt ; overflow: hidden ; overflow-wrap: break-word&quot;&gt;&lt;p dir=&quot;ltr&quot; style=&quot;line-height: 1.2 ; margin-top: 0pt ; margin-bottom: 0pt&quot;&gt;&lt;span style=&quot;font-size: 11pt ; font-family: &amp;#34;arial&amp;#34; ; color: rgb(0 , 0 , 0) ; background-color: transparent ; font-weight: 400 ; font-style: normal ; font-variant: normal ; text-decoration: none ; vertical-align: baseline&quot;&gt;(x)&lt;/span&gt;&lt;/p&gt;&lt;p dir=&quot;ltr&quot; style=&quot;line-height: 1.2 ; margin-top: 0pt ; margin-bottom: 0pt&quot;&gt;&lt;span style=&quot;font-size: 11pt ; font-family: &amp;#34;arial&amp;#34; ; color: rgb(0 , 0 , 0) ; background-color: transparent ; font-weight: 400 ; font-style: normal ; font-variant: normal ; text-decoration: none ; vertical-align: baseline&quot;&gt;(x)&lt;br&gt;&lt;/span&gt;&lt;/p&gt;&lt;/td&gt;&lt;td style=&quot;border-left: solid #000000 1pt ; border-right: solid #000000 1pt ; border-bottom: solid #000000 1pt ; border-top: solid #000000 1pt ; vertical-align: top ; background-color: #ffffff ; padding: 5pt 5pt 5pt 5pt ; overflow: hidden ; overflow-wrap: break-word&quot;&gt;&lt;p dir=&quot;ltr&quot; style=&quot;line-height: 1.2 ; margin-top: 0pt ; margin-bottom: 0pt&quot;&gt;&lt;span style=&quot;font-size: 11pt ; font-family: &amp;#34;arial&amp;#34; ; color: rgb(0 , 0 , 0) ; background-color: transparent ; font-weight: 400 ; font-style: normal ; font-variant: normal ; text-decoration: none ; vertical-align: baseline&quot;&gt;(y)&lt;/span&gt;&lt;/p&gt;&lt;p dir=&quot;ltr&quot; style=&quot;line-height: 1.2 ; margin-top: 0pt ; margin-bottom: 0pt&quot;&gt;&lt;span style=&quot;font-size: 11pt ; font-family: &amp;#34;arial&amp;#34; ; color: rgb(0 , 0 , 0) ; background-color: transparent ; font-weight: 400 ; font-style: normal ; font-variant: normal ; text-decoration: none ; vertical-align: baseline&quot;&gt;(x)&lt;br&gt;&lt;/span&gt;&lt;/p&gt;&lt;/td&gt;&lt;/tr&gt;&lt;tr style=&quot;height: 0pt&quot;&gt;&lt;td style=&quot;border-left: solid #000000 1pt ; border-right: solid #000000 1pt ; border-bottom: solid #000000 1pt ; border-top: solid #000000 1pt ; vertical-align: top ; background-color: #ffffff ; padding: 5pt 5pt 5pt 5pt ; overflow: hidden ; overflow-wrap: break-word&quot;&gt;&lt;p dir=&quot;ltr&quot; style=&quot;line-height: 1.2 ; margin-top: 0pt ; margin-bottom: 0pt&quot;&gt;&lt;span style=&quot;font-size: 11pt ; font-family: &amp;#34;arial&amp;#34; ; color: rgb(0 , 0 , 0) ; background-color: transparent ; font-weight: 400 ; font-style: normal ; font-variant: normal ; text-decoration: none ; vertical-align: baseline&quot;&gt;(-) Collection charges&lt;/span&gt;&lt;/p&gt;&lt;/td&gt;&lt;td style=&quot;border-left: solid #000000 1pt ; border-right: solid #000000 1pt ; border-bottom: solid #000000 1pt ; border-top: solid #000000 1pt ; vertical-align: top ; background-color: #ffffff ; padding: 5pt 5pt 5pt 5pt ; overflow: hidden ; overflow-wrap: break-word&quot;&gt;&lt;p dir=&quot;ltr&quot; style=&quot;line-height: 1.2 ; margin-top: 0pt ; margin-bottom: 0pt&quot;&gt;&lt;span style=&quot;font-size: 11pt ; font-family: &amp;#34;arial&amp;#34; ; color: rgb(0 , 0 , 0) ; background-color: transparent ; font-weight: 400 ; font-style: normal ; font-variant: normal ; text-decoration: none ; vertical-align: baseline&quot;&gt;(x)&lt;/span&gt;&lt;/p&gt;&lt;/td&gt;&lt;td style=&quot;border-left: solid #000000 1pt ; border-right: solid #000000 1pt ; border-bottom: solid #000000 1pt ; border-top: solid #000000 1pt ; vertical-align: top ; background-color: #ffffff ; padding: 5pt 5pt 5pt 5pt ; overflow: hidden ; overflow-wrap: break-word&quot;&gt;&lt;p dir=&quot;ltr&quot; style=&quot;line-height: 1.2 ; margin-top: 0pt ; margin-bottom: 0pt&quot;&gt;&lt;span style=&quot;font-size: 11pt ; font-family: &amp;#34;arial&amp;#34; ; color: rgb(0 , 0 , 0) ; background-color: transparent ; font-weight: 400 ; font-style: normal ; font-variant: normal ; text-decoration: none ; vertical-align: baseline&quot;&gt;(y)&lt;/span&gt;&lt;/p&gt;&lt;/td&gt;&lt;/tr&gt;&lt;tr style=&quot;height: 0pt&quot;&gt;&lt;td style=&quot;border-left: solid #000000 1pt ; border-right: solid #000000 1pt ; border-bottom: solid #000000 1pt ; border-top: solid #000000 1pt ; vertical-align: top ; background-color: #ffffff ; padding: 5pt 5pt 5pt 5pt ; overflow: hidden ; overflow-wrap: break-word&quot;&gt;&lt;p dir=&quot;ltr&quot; style=&quot;line-height: 1.2 ; margin-top: 0pt ; margin-bottom: 0pt&quot;&gt;&lt;span style=&quot;font-size: 11pt ; font-family: &amp;#34;arial&amp;#34; ; color: rgb(0 , 0 , 0) ; background-color: transparent ; font-weight: 400 ; font-style: normal ; font-variant: normal ; text-decoration: none ; vertical-align: baseline&quot;&gt;NPBT&lt;/span&gt;&lt;/p&gt;&lt;/td&gt;&lt;td style=&quot;border-left: solid #000000 1pt ; border-right: solid #000000 1pt ; border-bottom: solid #000000 1pt ; border-top: solid #000000 1pt ; vertical-align: top ; background-color: #ffffff ; padding: 5pt 5pt 5pt 5pt ; overflow: hidden ; overflow-wrap: break-word&quot;&gt;&lt;p dir=&quot;ltr&quot; style=&quot;line-height: 1.2 ; margin-top: 0pt ; margin-bottom: 0pt&quot;&gt;&lt;span style=&quot;font-size: 11pt ; font-family: &amp;#34;arial&amp;#34; ; color: rgb(0 , 0 , 0) ; background-color: transparent ; font-weight: 400 ; font-style: normal ; font-variant: normal ; text-decoration: none ; vertical-align: baseline&quot;&gt;yy&lt;/span&gt;&lt;/p&gt;&lt;/td&gt;&lt;td style=&quot;border-left: solid #000000 1pt ; border-right: solid #000000 1pt ; border-bottom: solid #000000 1pt ; border-top: solid #000000 1pt ; vertical-align: top ; background-color: #ffffff ; padding: 5pt 5pt 5pt 5pt ; overflow: hidden ; overflow-wrap: break-word&quot;&gt;&lt;p dir=&quot;ltr&quot; style=&quot;line-height: 1.2 ; margin-top: 0pt ; margin-bottom: 0pt&quot;&gt;&lt;span style=&quot;font-size: 11pt ; font-family: &amp;#34;arial&amp;#34; ; color: rgb(0 , 0 , 0) ; background-color: transparent ; font-weight: 400 ; font-style: normal ; font-variant: normal ; text-decoration: none ; vertical-align: baseline&quot;&gt;yy&lt;/span&gt;&lt;/p&gt;&lt;/td&gt;&lt;/tr&gt;&lt;tr style=&quot;height: 0pt&quot;&gt;&lt;td style=&quot;border-left: solid #000000 1pt ; border-right: solid #000000 1pt ; border-bottom: solid #000000 1pt ; border-top: solid #000000 1pt ; vertical-align: top ; background-color: #ffffff ; padding: 5pt 5pt 5pt 5pt ; overflow: hidden ; overflow-wrap: break-word&quot;&gt;&lt;p dir=&quot;ltr&quot; style=&quot;line-height: 1.2 ; margin-top: 0pt ; margin-bottom: 0pt&quot;&gt;&lt;span style=&quot;font-size: 11pt ; font-family: &amp;#34;arial&amp;#34; ; color: rgb(0 , 0 , 0) ; background-color: transparent ; font-weight: 400 ; font-style: normal ; font-variant: normal ; text-decoration: none ; vertical-align: baseline&quot;&gt;(-) Tax&lt;/span&gt;&lt;/p&gt;&lt;/td&gt;&lt;td style=&quot;border-left: solid #000000 1pt ; border-right: solid #000000 1pt ; border-bottom: solid #000000 1pt ; border-top: solid #000000 1pt ; vertical-align: top ; background-color: #ffffff ; padding: 5pt 5pt 5pt 5pt ; overflow: hidden ; overflow-wrap: break-word&quot;&gt;&lt;p dir=&quot;ltr&quot; style=&quot;line-height: 1.2 ; margin-top: 0pt ; margin-bottom: 0pt&quot;&gt;&lt;span style=&quot;font-size: 11pt ; font-family: &amp;#34;arial&amp;#34; ; color: rgb(0 , 0 , 0) ; background-color: transparent ; font-weight: 400 ; font-style: normal ; font-variant: normal ; text-decoration: none ; vertical-align: baseline&quot;&gt;(x)&lt;/span&gt;&lt;/p&gt;&lt;/td&gt;&lt;td style=&quot;border-left: solid #000000 1pt ; border-right: solid #000000 1pt ; border-bottom: solid #000000 1pt ; border-top: solid #000000 1pt ; vertical-align: top ; background-color: #ffffff ; padding: 5pt 5pt 5pt 5pt ; overflow: hidden ; overflow-wrap: break-word&quot;&gt;&lt;p dir=&quot;ltr&quot; style=&quot;line-height: 1.2 ; margin-top: 0pt ; margin-bottom: 0pt&quot;&gt;&lt;span style=&quot;font-size: 11pt ; font-family: &amp;#34;arial&amp;#34; ; color: rgb(0 , 0 , 0) ; background-color: transparent ; font-weight: 400 ; font-style: normal ; font-variant: normal ; text-decoration: none ; vertical-align: baseline&quot;&gt;(y)&lt;/span&gt;&lt;/p&gt;&lt;/td&gt;&lt;/tr&gt;&lt;tr style=&quot;height: 0pt&quot;&gt;&lt;td style=&quot;border-left: solid #000000 1pt ; border-right: solid #000000 1pt ; border-bottom: solid #000000 1pt ; border-top: solid #000000 1pt ; vertical-align: top ; background-color: #ffffff ; padding: 5pt 5pt 5pt 5pt ; overflow: hidden ; overflow-wrap: break-word&quot;&gt;&lt;p dir=&quot;ltr&quot; style=&quot;line-height: 1.2 ; margin-top: 0pt ; margin-bottom: 0pt&quot;&gt;&lt;span style=&quot;font-size: 11pt ; font-family: &amp;#34;arial&amp;#34; ; color: rgb(0 , 0 , 0) ; background-color: transparent ; font-weight: 400 ; font-style: normal ; font-variant: normal ; text-decoration: none ; vertical-align: baseline&quot;&gt;NPAT&amp;nbsp; [A]&lt;/span&gt;&lt;/p&gt;&lt;/td&gt;&lt;td style=&quot;border-left: solid #000000 1pt ; border-right: solid #000000 1pt ; border-bottom: solid #000000 1pt ; border-top: solid #000000 1pt ; vertical-align: top ; background-color: #ffffff ; padding: 5pt 5pt 5pt 5pt ; overflow: hidden ; overflow-wrap: break-word&quot;&gt;&lt;p dir=&quot;ltr&quot; style=&quot;line-height: 1.2 ; margin-top: 0pt ; margin-bottom: 0pt&quot;&gt;&lt;span style=&quot;font-size: 11pt ; font-family: &amp;#34;arial&amp;#34; ; color: rgb(0 , 0 , 0) ; background-color: transparent ; font-weight: 400 ; font-style: normal ; font-variant: normal ; text-decoration: none ; vertical-align: baseline&quot;&gt;yyy&lt;/span&gt;&lt;/p&gt;&lt;/td&gt;&lt;td style=&quot;border-left: solid #000000 1pt ; border-right: solid #000000 1pt ; border-bottom: solid #000000 1pt ; border-top: solid #000000 1pt ; vertical-align: top ; background-color: #ffffff ; padding: 5pt 5pt 5pt 5pt ; overflow: hidden ; overflow-wrap: break-word&quot;&gt;&lt;p dir=&quot;ltr&quot; style=&quot;line-height: 1.2 ; margin-top: 0pt ; margin-bottom: 0pt&quot;&gt;&lt;span style=&quot;font-size: 11pt ; font-family: &amp;#34;arial&amp;#34; ; color: rgb(0 , 0 , 0) ; background-color: transparent ; font-weight: 400 ; font-style: normal ; font-variant: normal ; text-decoration: none ; vertical-align: baseline&quot;&gt;yyy&lt;/span&gt;&lt;/p&gt;&lt;/td&gt;&lt;/tr&gt;&lt;tr style=&quot;height: 0pt&quot;&gt;&lt;td style=&quot;border-left: solid #000000 1pt ; border-right: solid #000000 1pt ; border-bottom: solid #000000 1pt ; border-top: solid #000000 1pt ; vertical-align: top ; background-color: #ffffff ; padding: 5pt 5pt 5pt 5pt ; overflow: hidden ; overflow-wrap: break-word&quot;&gt;&lt;br&gt;&lt;/td&gt;&lt;td style=&quot;border-left: solid #000000 1pt ; border-right: solid #000000 1pt ; border-bottom: solid #000000 1pt ; border-top: solid #000000 1pt ; vertical-align: top ; background-color: #ffffff ; padding: 5pt 5pt 5pt 5pt ; overflow: hidden ; overflow-wrap: break-word&quot;&gt;&lt;br&gt;&lt;/td&gt;&lt;td style=&quot;border-left: solid #000000 1pt ; border-right: solid #000000 1pt ; border-bottom: solid #000000 1pt ; border-top: solid #000000 1pt ; vertical-align: top ; background-color: #ffffff ; padding: 5pt 5pt 5pt 5pt ; overflow: hidden ; overflow-wrap: break-word&quot;&gt;&lt;br&gt;&lt;/td&gt;&lt;/tr&gt;&lt;tr style=&quot;height: 0pt&quot;&gt;&lt;td style=&quot;border-left: solid #000000 1pt ; border-right: solid #000000 1pt ; border-bottom: solid #000000 1pt ; border-top: solid #000000 1pt ; vertical-align: top ; background-color: #ffffff ; padding: 5pt 5pt 5pt 5pt ; overflow: hidden ; overflow-wrap: break-word&quot;&gt;&lt;p dir=&quot;ltr&quot; style=&quot;line-height: 1.2 ; margin-top: 0pt ; margin-bottom: 0pt&quot;&gt;&lt;span style=&quot;font-size: 11pt ; font-family: &amp;#34;arial&amp;#34; ; color: rgb(0 , 0 , 0) ; background-color: transparent ; font-weight: 400 ; font-style: normal ; font-variant: normal ; text-decoration: none ; vertical-align: baseline&quot;&gt;Debtors on variable cost (From formula)&lt;/span&gt;&lt;/p&gt;&lt;/td&gt;&lt;td style=&quot;border-left: solid #000000 1pt ; border-right: solid #000000 1pt ; border-bottom: solid #000000 1pt ; border-top: solid #000000 1pt ; vertical-align: top ; background-color: #ffffff ; padding: 5pt 5pt 5pt 5pt ; overflow: hidden ; overflow-wrap: break-word&quot;&gt;&lt;p dir=&quot;ltr&quot; style=&quot;line-height: 1.2 ; margin-top: 0pt ; margin-bottom: 0pt&quot;&gt;&lt;span style=&quot;font-size: 11pt ; font-family: &amp;#34;arial&amp;#34; ; color: rgb(0 , 0 , 0) ; background-color: transparent ; font-weight: 400 ; font-style: normal ; font-variant: normal ; text-decoration: none ; vertical-align: baseline&quot;&gt;a&lt;/span&gt;&lt;/p&gt;&lt;/td&gt;&lt;td style=&quot;border-left: solid #000000 1pt ; border-right: solid #000000 1pt ; border-bottom: solid #000000 1pt ; border-top: solid #000000 1pt ; vertical-align: top ; background-color: #ffffff ; padding: 5pt 5pt 5pt 5pt ; overflow: hidden ; overflow-wrap: break-word&quot;&gt;&lt;p dir=&quot;ltr&quot; style=&quot;line-height: 1.2 ; margin-top: 0pt ; margin-bottom: 0pt&quot;&gt;&lt;span style=&quot;font-size: 11pt ; font-family: &amp;#34;arial&amp;#34; ; color: rgb(0 , 0 , 0) ; background-color: transparent ; font-weight: 400 ; font-style: normal ; font-variant: normal ; text-decoration: none ; vertical-align: baseline&quot;&gt;a&lt;/span&gt;&lt;/p&gt;&lt;/td&gt;&lt;/tr&gt;&lt;tr style=&quot;height: 0pt&quot;&gt;&lt;td style=&quot;border-left: solid #000000 1pt ; border-right: solid #000000 1pt ; border-bottom: solid #000000 1pt ; border-top: solid #000000 1pt ; vertical-align: top ; background-color: #ffffff ; padding: 5pt 5pt 5pt 5pt ; overflow: hidden ; overflow-wrap: break-word&quot;&gt;&lt;p dir=&quot;ltr&quot; style=&quot;line-height: 1.2 ; margin-top: 0pt ; margin-bottom: 0pt&quot;&gt;&lt;span style=&quot;font-size: 11pt ; font-family: &amp;#34;arial&amp;#34; ; color: rgb(0 , 0 , 0) ; background-color: transparent ; font-weight: 400 ; font-style: normal ; font-variant: normal ; text-decoration: none ; vertical-align: baseline&quot;&gt;(-) interest lost on debtor&amp;nbsp; [B]&lt;/span&gt;&lt;/p&gt;&lt;/td&gt;&lt;td style=&quot;border-left: solid #000000 1pt ; border-right: solid #000000 1pt ; border-bottom: solid #000000 1pt ; border-top: solid #000000 1pt ; vertical-align: top ; background-color: #ffffff ; padding: 5pt 5pt 5pt 5pt ; overflow: hidden ; overflow-wrap: break-word&quot;&gt;&lt;p dir=&quot;ltr&quot; style=&quot;line-height: 1.2 ; margin-top: 0pt ; margin-bottom: 0pt&quot;&gt;&lt;span style=&quot;font-size: 11pt ; font-family: &amp;#34;arial&amp;#34; ; color: rgb(0 , 0 , 0) ; background-color: transparent ; font-weight: 400 ; font-style: normal ; font-variant: normal ; text-decoration: none ; vertical-align: baseline&quot;&gt;a * x%&lt;/span&gt;&lt;/p&gt;&lt;/td&gt;&lt;td style=&quot;border-left: solid #000000 1pt ; border-right: solid #000000 1pt ; border-bottom: solid #000000 1pt ; border-top: solid #000000 1pt ; vertical-align: top ; background-color: #ffffff ; padding: 5pt 5pt 5pt 5pt ; overflow: hidden ; overflow-wrap: break-word&quot;&gt;&lt;p dir=&quot;ltr&quot; style=&quot;line-height: 1.2 ; margin-top: 0pt ; margin-bottom: 0pt&quot;&gt;&lt;span style=&quot;font-size: 11pt ; font-family: &amp;#34;arial&amp;#34; ; color: rgb(0 , 0 , 0) ; background-color: transparent ; font-weight: 400 ; font-style: normal ; font-variant: normal ; text-decoration: none ; vertical-align: baseline&quot;&gt;a * x%&lt;/span&gt;&lt;/p&gt;&lt;/td&gt;&lt;/tr&gt;&lt;tr style=&quot;height: 0pt&quot;&gt;&lt;td style=&quot;border-left: solid #000000 1pt ; border-right: solid #000000 1pt ; border-bottom: solid #000000 1pt ; border-top: solid #000000 1pt ; vertical-align: top ; background-color: #ffffff ; padding: 5pt 5pt 5pt 5pt ; overflow: hidden ; overflow-wrap: break-word&quot;&gt;&lt;p dir=&quot;ltr&quot; style=&quot;line-height: 1.2 ; margin-top: 0pt ; margin-bottom: 0pt&quot;&gt;&lt;span style=&quot;font-size: 11pt ; font-family: &amp;#34;arial&amp;#34; ; color: rgb(0 , 0 , 0) ; background-color: transparent ; font-weight: 400 ; font-style: normal ; font-variant: normal ; text-decoration: none ; vertical-align: baseline&quot;&gt;A - B&lt;/span&gt;&lt;/p&gt;&lt;/td&gt;&lt;td style=&quot;border-left: solid #000000 1pt ; border-right: solid #000000 1pt ; border-bottom: solid #000000 1pt ; border-top: solid #000000 1pt ; vertical-align: top ; background-color: #ffffff ; padding: 5pt 5pt 5pt 5pt ; overflow: hidden ; overflow-wrap: break-word&quot;&gt;&lt;p dir=&quot;ltr&quot; style=&quot;line-height: 1.2 ; margin-top: 0pt ; margin-bottom: 0pt&quot;&gt;&lt;span style=&quot;font-size: 11pt ; font-family: &amp;#34;arial&amp;#34; ; color: rgb(0 , 0 , 0) ; background-color: transparent ; font-weight: 400 ; font-style: normal ; font-variant: normal ; text-decoration: none ; vertical-align: baseline&quot;&gt;XXXX&lt;/span&gt;&lt;/p&gt;&lt;/td&gt;&lt;td style=&quot;border-left: solid #000000 1pt ; border-right: solid #000000 1pt ; border-bottom: solid #000000 1pt ; border-top: solid #000000 1pt ; vertical-align: top ; background-color: #ffffff ; padding: 5pt 5pt 5pt 5pt ; overflow: hidden ; overflow-wrap: break-word&quot;&gt;&lt;p dir=&quot;ltr&quot; style=&quot;line-height: 1.2 ; margin-top: 0pt ; margin-bottom: 0pt&quot;&gt;&lt;span style=&quot;font-size: 11pt ; font-family: &amp;#34;arial&amp;#34; ; color: rgb(0 , 0 , 0) ; background-color: transparent ; font-weight: 400 ; font-style: normal ; font-variant: normal ; text-decoration: none ; vertical-align: baseline&quot;&gt;YYYY&lt;/span&gt;&lt;/p&gt;&lt;/td&gt;&lt;/tr&gt;&lt;/tbody&gt;&lt;/table&gt;&lt;/div&gt;" style="text;whiteSpace=wrap;html=1;" parent="1" vertex="1">
          <mxGeometry x="150" y="1460" width="550" height="470" as="geometry" />
        </mxCell>
        <mxCell id="dmRQIC54Is3TJMsPzp_G-55" style="edgeStyle=orthogonalEdgeStyle;rounded=0;orthogonalLoop=1;jettySize=auto;html=1;" parent="1" source="dmRQIC54Is3TJMsPzp_G-1" target="jX1o0PaKv8pk1o8IosKb-24" edge="1">
          <mxGeometry relative="1" as="geometry" />
        </mxCell>
        <mxCell id="dmRQIC54Is3TJMsPzp_G-1" value="Independent approach" style="rounded=1;whiteSpace=wrap;html=1;" parent="1" vertex="1">
          <mxGeometry x="365" y="1400" width="120" height="40" as="geometry" />
        </mxCell>
        <mxCell id="dmRQIC54Is3TJMsPzp_G-54" style="edgeStyle=orthogonalEdgeStyle;rounded=0;orthogonalLoop=1;jettySize=auto;html=1;entryX=0.499;entryY=-0.018;entryDx=0;entryDy=0;entryPerimeter=0;" parent="1" source="dmRQIC54Is3TJMsPzp_G-2" target="dmRQIC54Is3TJMsPzp_G-23" edge="1">
          <mxGeometry relative="1" as="geometry" />
        </mxCell>
        <mxCell id="dmRQIC54Is3TJMsPzp_G-2" value="&lt;div&gt;Incremental &lt;br&gt;&lt;/div&gt;&lt;div&gt;approach&lt;/div&gt;" style="rounded=1;whiteSpace=wrap;html=1;" parent="1" vertex="1">
          <mxGeometry x="810" y="1400" width="120" height="40" as="geometry" />
        </mxCell>
        <mxCell id="dmRQIC54Is3TJMsPzp_G-22" value="" style="shape=table;startSize=0;container=1;collapsible=0;childLayout=tableLayout;" parent="1" vertex="1">
          <mxGeometry x="720" y="1470" width="300" height="520" as="geometry" />
        </mxCell>
        <mxCell id="dmRQIC54Is3TJMsPzp_G-23" value="" style="shape=partialRectangle;collapsible=0;dropTarget=0;pointerEvents=0;fillColor=none;top=0;left=0;bottom=0;right=0;points=[[0,0.5],[1,0.5]];portConstraint=eastwest;" parent="dmRQIC54Is3TJMsPzp_G-22" vertex="1">
          <mxGeometry width="300" height="40" as="geometry" />
        </mxCell>
        <mxCell id="dmRQIC54Is3TJMsPzp_G-24" value="Particulars" style="shape=partialRectangle;html=1;whiteSpace=wrap;connectable=0;overflow=hidden;fillColor=none;top=0;left=0;bottom=0;right=0;pointerEvents=1;" parent="dmRQIC54Is3TJMsPzp_G-23" vertex="1">
          <mxGeometry width="220" height="40" as="geometry" />
        </mxCell>
        <mxCell id="dmRQIC54Is3TJMsPzp_G-25" value="Amt" style="shape=partialRectangle;html=1;whiteSpace=wrap;connectable=0;overflow=hidden;fillColor=none;top=0;left=0;bottom=0;right=0;pointerEvents=1;" parent="dmRQIC54Is3TJMsPzp_G-23" vertex="1">
          <mxGeometry x="220" width="80" height="40" as="geometry" />
        </mxCell>
        <mxCell id="dmRQIC54Is3TJMsPzp_G-26" value="" style="shape=partialRectangle;collapsible=0;dropTarget=0;pointerEvents=0;fillColor=none;top=0;left=0;bottom=0;right=0;points=[[0,0.5],[1,0.5]];portConstraint=eastwest;" parent="dmRQIC54Is3TJMsPzp_G-22" vertex="1">
          <mxGeometry y="40" width="300" height="40" as="geometry" />
        </mxCell>
        <mxCell id="dmRQIC54Is3TJMsPzp_G-27" value="`uarr` in sales" style="shape=partialRectangle;html=1;whiteSpace=wrap;connectable=0;overflow=hidden;fillColor=none;top=0;left=0;bottom=0;right=0;pointerEvents=1;" parent="dmRQIC54Is3TJMsPzp_G-26" vertex="1">
          <mxGeometry width="220" height="40" as="geometry" />
        </mxCell>
        <mxCell id="dmRQIC54Is3TJMsPzp_G-28" value="xxx" style="shape=partialRectangle;html=1;whiteSpace=wrap;connectable=0;overflow=hidden;fillColor=none;top=0;left=0;bottom=0;right=0;pointerEvents=1;" parent="dmRQIC54Is3TJMsPzp_G-26" vertex="1">
          <mxGeometry x="220" width="80" height="40" as="geometry" />
        </mxCell>
        <mxCell id="dmRQIC54Is3TJMsPzp_G-29" value="" style="shape=partialRectangle;collapsible=0;dropTarget=0;pointerEvents=0;fillColor=none;top=0;left=0;bottom=0;right=0;points=[[0,0.5],[1,0.5]];portConstraint=eastwest;" parent="dmRQIC54Is3TJMsPzp_G-22" vertex="1">
          <mxGeometry y="80" width="300" height="40" as="geometry" />
        </mxCell>
        <mxCell id="dmRQIC54Is3TJMsPzp_G-30" value="`uarr` in Variable cost" style="shape=partialRectangle;html=1;whiteSpace=wrap;connectable=0;overflow=hidden;fillColor=none;top=0;left=0;bottom=0;right=0;pointerEvents=1;" parent="dmRQIC54Is3TJMsPzp_G-29" vertex="1">
          <mxGeometry width="220" height="40" as="geometry" />
        </mxCell>
        <mxCell id="dmRQIC54Is3TJMsPzp_G-31" value="x" style="shape=partialRectangle;html=1;whiteSpace=wrap;connectable=0;overflow=hidden;fillColor=none;top=0;left=0;bottom=0;right=0;pointerEvents=1;" parent="dmRQIC54Is3TJMsPzp_G-29" vertex="1">
          <mxGeometry x="220" width="80" height="40" as="geometry" />
        </mxCell>
        <mxCell id="dmRQIC54Is3TJMsPzp_G-32" value="" style="shape=partialRectangle;collapsible=0;dropTarget=0;pointerEvents=0;fillColor=none;top=0;left=0;bottom=0;right=0;points=[[0,0.5],[1,0.5]];portConstraint=eastwest;" parent="dmRQIC54Is3TJMsPzp_G-22" vertex="1">
          <mxGeometry y="120" width="300" height="40" as="geometry" />
        </mxCell>
        <mxCell id="dmRQIC54Is3TJMsPzp_G-33" value="`uarr` in contribution" style="shape=partialRectangle;html=1;whiteSpace=wrap;connectable=0;overflow=hidden;fillColor=none;top=0;left=0;bottom=0;right=0;pointerEvents=1;" parent="dmRQIC54Is3TJMsPzp_G-32" vertex="1">
          <mxGeometry width="220" height="40" as="geometry" />
        </mxCell>
        <mxCell id="dmRQIC54Is3TJMsPzp_G-34" value="xx" style="shape=partialRectangle;html=1;whiteSpace=wrap;connectable=0;overflow=hidden;fillColor=none;top=0;left=0;bottom=0;right=0;pointerEvents=1;" parent="dmRQIC54Is3TJMsPzp_G-32" vertex="1">
          <mxGeometry x="220" width="80" height="40" as="geometry" />
        </mxCell>
        <mxCell id="dmRQIC54Is3TJMsPzp_G-35" value="" style="shape=partialRectangle;collapsible=0;dropTarget=0;pointerEvents=0;fillColor=none;top=0;left=0;bottom=0;right=0;points=[[0,0.5],[1,0.5]];portConstraint=eastwest;" parent="dmRQIC54Is3TJMsPzp_G-22" vertex="1">
          <mxGeometry y="160" width="300" height="40" as="geometry" />
        </mxCell>
        <mxCell id="dmRQIC54Is3TJMsPzp_G-36" value="`uarr` in expenses / (`darr` in expenses)" style="shape=partialRectangle;html=1;whiteSpace=wrap;connectable=0;overflow=hidden;fillColor=none;top=0;left=0;bottom=0;right=0;pointerEvents=1;" parent="dmRQIC54Is3TJMsPzp_G-35" vertex="1">
          <mxGeometry width="220" height="40" as="geometry" />
        </mxCell>
        <mxCell id="dmRQIC54Is3TJMsPzp_G-37" value="x / (x)" style="shape=partialRectangle;html=1;whiteSpace=wrap;connectable=0;overflow=hidden;fillColor=none;top=0;left=0;bottom=0;right=0;pointerEvents=1;" parent="dmRQIC54Is3TJMsPzp_G-35" vertex="1">
          <mxGeometry x="220" width="80" height="40" as="geometry" />
        </mxCell>
        <mxCell id="dmRQIC54Is3TJMsPzp_G-38" value="" style="shape=partialRectangle;collapsible=0;dropTarget=0;pointerEvents=0;fillColor=none;top=0;left=0;bottom=0;right=0;points=[[0,0.5],[1,0.5]];portConstraint=eastwest;" parent="dmRQIC54Is3TJMsPzp_G-22" vertex="1">
          <mxGeometry y="200" width="300" height="40" as="geometry" />
        </mxCell>
        <mxCell id="dmRQIC54Is3TJMsPzp_G-39" value="`uarr` in NPBT/NPAT [A]" style="shape=partialRectangle;html=1;whiteSpace=wrap;connectable=0;overflow=hidden;fillColor=none;top=0;left=0;bottom=0;right=0;pointerEvents=1;" parent="dmRQIC54Is3TJMsPzp_G-38" vertex="1">
          <mxGeometry width="220" height="40" as="geometry" />
        </mxCell>
        <mxCell id="dmRQIC54Is3TJMsPzp_G-40" value="x" style="shape=partialRectangle;html=1;whiteSpace=wrap;connectable=0;overflow=hidden;fillColor=none;top=0;left=0;bottom=0;right=0;pointerEvents=1;" parent="dmRQIC54Is3TJMsPzp_G-38" vertex="1">
          <mxGeometry x="220" width="80" height="40" as="geometry" />
        </mxCell>
        <mxCell id="dmRQIC54Is3TJMsPzp_G-101" style="shape=partialRectangle;collapsible=0;dropTarget=0;pointerEvents=0;fillColor=none;top=0;left=0;bottom=0;right=0;points=[[0,0.5],[1,0.5]];portConstraint=eastwest;" parent="dmRQIC54Is3TJMsPzp_G-22" vertex="1">
          <mxGeometry y="240" width="300" height="40" as="geometry" />
        </mxCell>
        <mxCell id="dmRQIC54Is3TJMsPzp_G-102" style="shape=partialRectangle;html=1;whiteSpace=wrap;connectable=0;overflow=hidden;fillColor=none;top=0;left=0;bottom=0;right=0;pointerEvents=1;" parent="dmRQIC54Is3TJMsPzp_G-101" vertex="1">
          <mxGeometry width="220" height="40" as="geometry" />
        </mxCell>
        <mxCell id="dmRQIC54Is3TJMsPzp_G-103" style="shape=partialRectangle;html=1;whiteSpace=wrap;connectable=0;overflow=hidden;fillColor=none;top=0;left=0;bottom=0;right=0;pointerEvents=1;" parent="dmRQIC54Is3TJMsPzp_G-101" vertex="1">
          <mxGeometry x="220" width="80" height="40" as="geometry" />
        </mxCell>
        <mxCell id="dmRQIC54Is3TJMsPzp_G-44" style="shape=partialRectangle;collapsible=0;dropTarget=0;pointerEvents=0;fillColor=none;top=0;left=0;bottom=0;right=0;points=[[0,0.5],[1,0.5]];portConstraint=eastwest;" parent="dmRQIC54Is3TJMsPzp_G-22" vertex="1">
          <mxGeometry y="280" width="300" height="40" as="geometry" />
        </mxCell>
        <mxCell id="dmRQIC54Is3TJMsPzp_G-45" value="`uarr` in Debtors variable cost" style="shape=partialRectangle;html=1;whiteSpace=wrap;connectable=0;overflow=hidden;fillColor=none;top=0;left=0;bottom=0;right=0;pointerEvents=1;" parent="dmRQIC54Is3TJMsPzp_G-44" vertex="1">
          <mxGeometry width="220" height="40" as="geometry" />
        </mxCell>
        <mxCell id="dmRQIC54Is3TJMsPzp_G-46" value="x" style="shape=partialRectangle;html=1;whiteSpace=wrap;connectable=0;overflow=hidden;fillColor=none;top=0;left=0;bottom=0;right=0;pointerEvents=1;" parent="dmRQIC54Is3TJMsPzp_G-44" vertex="1">
          <mxGeometry x="220" width="80" height="40" as="geometry" />
        </mxCell>
        <mxCell id="dmRQIC54Is3TJMsPzp_G-104" style="shape=partialRectangle;collapsible=0;dropTarget=0;pointerEvents=0;fillColor=none;top=0;left=0;bottom=0;right=0;points=[[0,0.5],[1,0.5]];portConstraint=eastwest;" parent="dmRQIC54Is3TJMsPzp_G-22" vertex="1">
          <mxGeometry y="320" width="300" height="40" as="geometry" />
        </mxCell>
        <mxCell id="dmRQIC54Is3TJMsPzp_G-105" value="`uarr` in Current assets" style="shape=partialRectangle;html=1;whiteSpace=wrap;connectable=0;overflow=hidden;fillColor=none;top=0;left=0;bottom=0;right=0;pointerEvents=1;" parent="dmRQIC54Is3TJMsPzp_G-104" vertex="1">
          <mxGeometry width="220" height="40" as="geometry" />
        </mxCell>
        <mxCell id="dmRQIC54Is3TJMsPzp_G-106" value="x" style="shape=partialRectangle;html=1;whiteSpace=wrap;connectable=0;overflow=hidden;fillColor=none;top=0;left=0;bottom=0;right=0;pointerEvents=1;" parent="dmRQIC54Is3TJMsPzp_G-104" vertex="1">
          <mxGeometry x="220" width="80" height="40" as="geometry" />
        </mxCell>
        <mxCell id="dmRQIC54Is3TJMsPzp_G-110" style="shape=partialRectangle;collapsible=0;dropTarget=0;pointerEvents=0;fillColor=none;top=0;left=0;bottom=0;right=0;points=[[0,0.5],[1,0.5]];portConstraint=eastwest;" parent="dmRQIC54Is3TJMsPzp_G-22" vertex="1">
          <mxGeometry y="360" width="300" height="40" as="geometry" />
        </mxCell>
        <mxCell id="dmRQIC54Is3TJMsPzp_G-111" value="`uarr` in current liabilities" style="shape=partialRectangle;html=1;whiteSpace=wrap;connectable=0;overflow=hidden;fillColor=none;top=0;left=0;bottom=0;right=0;pointerEvents=1;" parent="dmRQIC54Is3TJMsPzp_G-110" vertex="1">
          <mxGeometry width="220" height="40" as="geometry" />
        </mxCell>
        <mxCell id="dmRQIC54Is3TJMsPzp_G-112" value="(x)" style="shape=partialRectangle;html=1;whiteSpace=wrap;connectable=0;overflow=hidden;fillColor=none;top=0;left=0;bottom=0;right=0;pointerEvents=1;" parent="dmRQIC54Is3TJMsPzp_G-110" vertex="1">
          <mxGeometry x="220" width="80" height="40" as="geometry" />
        </mxCell>
        <mxCell id="dmRQIC54Is3TJMsPzp_G-107" style="shape=partialRectangle;collapsible=0;dropTarget=0;pointerEvents=0;fillColor=none;top=0;left=0;bottom=0;right=0;points=[[0,0.5],[1,0.5]];portConstraint=eastwest;" parent="dmRQIC54Is3TJMsPzp_G-22" vertex="1">
          <mxGeometry y="400" width="300" height="40" as="geometry" />
        </mxCell>
        <mxCell id="dmRQIC54Is3TJMsPzp_G-108" value="`uarr` in Ner working capital" style="shape=partialRectangle;html=1;whiteSpace=wrap;connectable=0;overflow=hidden;fillColor=none;top=0;left=0;bottom=0;right=0;pointerEvents=1;" parent="dmRQIC54Is3TJMsPzp_G-107" vertex="1">
          <mxGeometry width="220" height="40" as="geometry" />
        </mxCell>
        <mxCell id="dmRQIC54Is3TJMsPzp_G-109" value="aaaa" style="shape=partialRectangle;html=1;whiteSpace=wrap;connectable=0;overflow=hidden;fillColor=none;top=0;left=0;bottom=0;right=0;pointerEvents=1;" parent="dmRQIC54Is3TJMsPzp_G-107" vertex="1">
          <mxGeometry x="220" width="80" height="40" as="geometry" />
        </mxCell>
        <mxCell id="dmRQIC54Is3TJMsPzp_G-41" style="shape=partialRectangle;collapsible=0;dropTarget=0;pointerEvents=0;fillColor=none;top=0;left=0;bottom=0;right=0;points=[[0,0.5],[1,0.5]];portConstraint=eastwest;" parent="dmRQIC54Is3TJMsPzp_G-22" vertex="1">
          <mxGeometry y="440" width="300" height="40" as="geometry" />
        </mxCell>
        <mxCell id="dmRQIC54Is3TJMsPzp_G-42" value="`uarr` in interest lost on Debtors [B]" style="shape=partialRectangle;html=1;whiteSpace=wrap;connectable=0;overflow=hidden;fillColor=none;top=0;left=0;bottom=0;right=0;pointerEvents=1;" parent="dmRQIC54Is3TJMsPzp_G-41" vertex="1">
          <mxGeometry width="220" height="40" as="geometry" />
        </mxCell>
        <mxCell id="dmRQIC54Is3TJMsPzp_G-43" value="aaaa*x%" style="shape=partialRectangle;html=1;whiteSpace=wrap;connectable=0;overflow=hidden;fillColor=none;top=0;left=0;bottom=0;right=0;pointerEvents=1;" parent="dmRQIC54Is3TJMsPzp_G-41" vertex="1">
          <mxGeometry x="220" width="80" height="40" as="geometry" />
        </mxCell>
        <mxCell id="dmRQIC54Is3TJMsPzp_G-47" style="shape=partialRectangle;collapsible=0;dropTarget=0;pointerEvents=0;fillColor=none;top=0;left=0;bottom=0;right=0;points=[[0,0.5],[1,0.5]];portConstraint=eastwest;" parent="dmRQIC54Is3TJMsPzp_G-22" vertex="1">
          <mxGeometry y="480" width="300" height="40" as="geometry" />
        </mxCell>
        <mxCell id="dmRQIC54Is3TJMsPzp_G-48" value="A - B" style="shape=partialRectangle;html=1;whiteSpace=wrap;connectable=0;overflow=hidden;fillColor=none;top=0;left=0;bottom=0;right=0;pointerEvents=1;" parent="dmRQIC54Is3TJMsPzp_G-47" vertex="1">
          <mxGeometry width="220" height="40" as="geometry" />
        </mxCell>
        <mxCell id="dmRQIC54Is3TJMsPzp_G-49" value="XXXX" style="shape=partialRectangle;html=1;whiteSpace=wrap;connectable=0;overflow=hidden;fillColor=none;top=0;left=0;bottom=0;right=0;pointerEvents=1;" parent="dmRQIC54Is3TJMsPzp_G-47" vertex="1">
          <mxGeometry x="220" width="80" height="40" as="geometry" />
        </mxCell>
        <mxCell id="dmRQIC54Is3TJMsPzp_G-51" value="&lt;div&gt;&lt;u&gt;&lt;b&gt;Selection&lt;/b&gt;&lt;/u&gt;&lt;/div&gt;&lt;div&gt;&lt;br&gt;&lt;/div&gt;&lt;div&gt;which ever gives the highest return go for it&lt;br&gt;&lt;/div&gt;" style="rounded=0;whiteSpace=wrap;html=1;" parent="1" vertex="1">
          <mxGeometry x="570" y="2080" width="250" height="50" as="geometry" />
        </mxCell>
        <mxCell id="dmRQIC54Is3TJMsPzp_G-52" value="&lt;div&gt;&lt;u&gt;&lt;b&gt;Mind&lt;/b&gt;&lt;/u&gt;&lt;/div&gt;&lt;div&gt;&lt;br&gt;&lt;/div&gt;&lt;div&gt;if return is given before tax, then it must be converted into after tax&lt;br&gt;&lt;/div&gt;" style="rounded=0;whiteSpace=wrap;html=1;" parent="1" vertex="1">
          <mxGeometry x="-320" width="250" height="70" as="geometry" />
        </mxCell>
        <mxCell id="dmRQIC54Is3TJMsPzp_G-99" style="edgeStyle=orthogonalEdgeStyle;rounded=0;orthogonalLoop=1;jettySize=auto;html=1;" parent="1" source="dmRQIC54Is3TJMsPzp_G-56" target="dmRQIC54Is3TJMsPzp_G-69" edge="1">
          <mxGeometry relative="1" as="geometry">
            <Array as="points">
              <mxPoint x="420" y="890" />
              <mxPoint x="670" y="890" />
            </Array>
          </mxGeometry>
        </mxCell>
        <mxCell id="dmRQIC54Is3TJMsPzp_G-56" value="No drama" style="rounded=1;whiteSpace=wrap;html=1;" parent="1" vertex="1">
          <mxGeometry x="360" y="660" width="120" height="40" as="geometry" />
        </mxCell>
        <mxCell id="dmRQIC54Is3TJMsPzp_G-66" style="edgeStyle=orthogonalEdgeStyle;rounded=0;orthogonalLoop=1;jettySize=auto;html=1;" parent="1" source="dmRQIC54Is3TJMsPzp_G-57" target="dmRQIC54Is3TJMsPzp_G-61" edge="1">
          <mxGeometry relative="1" as="geometry" />
        </mxCell>
        <mxCell id="dmRQIC54Is3TJMsPzp_G-57" value="When Credit sales is not given" style="rounded=1;whiteSpace=wrap;html=1;" parent="1" vertex="1">
          <mxGeometry x="600" y="660" width="120" height="40" as="geometry" />
        </mxCell>
        <mxCell id="dmRQIC54Is3TJMsPzp_G-98" style="edgeStyle=orthogonalEdgeStyle;rounded=0;orthogonalLoop=1;jettySize=auto;html=1;" parent="1" source="dmRQIC54Is3TJMsPzp_G-59" target="dmRQIC54Is3TJMsPzp_G-68" edge="1">
          <mxGeometry relative="1" as="geometry">
            <Array as="points">
              <mxPoint x="660" y="890" />
              <mxPoint x="410" y="890" />
            </Array>
          </mxGeometry>
        </mxCell>
        <mxCell id="dmRQIC54Is3TJMsPzp_G-59" value="`\text{Avg Debtors on Variable cost} = \text{Variable cost} / \text{Debtors turnover}`" style="rounded=1;whiteSpace=wrap;html=1;" parent="1" vertex="1">
          <mxGeometry x="475" y="800" width="370" height="60" as="geometry" />
        </mxCell>
        <mxCell id="dmRQIC54Is3TJMsPzp_G-67" style="edgeStyle=orthogonalEdgeStyle;rounded=0;orthogonalLoop=1;jettySize=auto;html=1;" parent="1" source="dmRQIC54Is3TJMsPzp_G-61" target="dmRQIC54Is3TJMsPzp_G-59" edge="1">
          <mxGeometry relative="1" as="geometry" />
        </mxCell>
        <mxCell id="dmRQIC54Is3TJMsPzp_G-61" value="`\text{Debtors Turnover} = \text{Credit sales} / \text{Avg Debtors Turnover}`" style="rounded=1;whiteSpace=wrap;html=1;" parent="1" vertex="1">
          <mxGeometry x="475" y="720" width="370" height="60" as="geometry" />
        </mxCell>
        <mxCell id="dmRQIC54Is3TJMsPzp_G-68" value="No drama" style="rounded=1;whiteSpace=wrap;html=1;" parent="1" vertex="1">
          <mxGeometry x="350" y="920" width="120" height="40" as="geometry" />
        </mxCell>
        <mxCell id="dmRQIC54Is3TJMsPzp_G-97" style="edgeStyle=orthogonalEdgeStyle;rounded=0;orthogonalLoop=1;jettySize=auto;html=1;" parent="1" source="dmRQIC54Is3TJMsPzp_G-69" target="dmRQIC54Is3TJMsPzp_G-71" edge="1">
          <mxGeometry relative="1" as="geometry" />
        </mxCell>
        <mxCell id="dmRQIC54Is3TJMsPzp_G-69" value="When there are multiple buyers / installment sales" style="rounded=1;whiteSpace=wrap;html=1;" parent="1" vertex="1">
          <mxGeometry x="590" y="920" width="160" height="40" as="geometry" />
        </mxCell>
        <mxCell id="dmRQIC54Is3TJMsPzp_G-71" value="Canculation of weighted average credit period" style="shape=table;startSize=30;container=1;collapsible=0;childLayout=tableLayout;" parent="1" vertex="1">
          <mxGeometry x="450" y="980" width="440" height="210" as="geometry" />
        </mxCell>
        <mxCell id="dmRQIC54Is3TJMsPzp_G-72" value="" style="shape=partialRectangle;collapsible=0;dropTarget=0;pointerEvents=0;fillColor=none;top=0;left=0;bottom=0;right=0;points=[[0,0.5],[1,0.5]];portConstraint=eastwest;" parent="dmRQIC54Is3TJMsPzp_G-71" vertex="1">
          <mxGeometry y="30" width="440" height="40" as="geometry" />
        </mxCell>
        <mxCell id="dmRQIC54Is3TJMsPzp_G-73" value="particular" style="shape=partialRectangle;html=1;whiteSpace=wrap;connectable=0;overflow=hidden;fillColor=none;top=0;left=0;bottom=0;right=0;pointerEvents=1;" parent="dmRQIC54Is3TJMsPzp_G-72" vertex="1">
          <mxGeometry width="88" height="40" as="geometry" />
        </mxCell>
        <mxCell id="dmRQIC54Is3TJMsPzp_G-74" value="Credit period" style="shape=partialRectangle;html=1;whiteSpace=wrap;connectable=0;overflow=hidden;fillColor=none;top=0;left=0;bottom=0;right=0;pointerEvents=1;" parent="dmRQIC54Is3TJMsPzp_G-72" vertex="1">
          <mxGeometry x="88" width="88" height="40" as="geometry" />
        </mxCell>
        <mxCell id="dmRQIC54Is3TJMsPzp_G-75" value="&lt;div&gt;Sales&lt;/div&gt;&lt;div&gt;Qty&lt;br&gt;&lt;/div&gt;" style="shape=partialRectangle;html=1;whiteSpace=wrap;connectable=0;overflow=hidden;fillColor=none;top=0;left=0;bottom=0;right=0;pointerEvents=1;" parent="dmRQIC54Is3TJMsPzp_G-72" vertex="1">
          <mxGeometry x="176" width="88" height="40" as="geometry" />
        </mxCell>
        <mxCell id="dmRQIC54Is3TJMsPzp_G-76" value="Weight" style="shape=partialRectangle;html=1;whiteSpace=wrap;connectable=0;overflow=hidden;fillColor=none;top=0;left=0;bottom=0;right=0;pointerEvents=1;" parent="dmRQIC54Is3TJMsPzp_G-72" vertex="1">
          <mxGeometry x="264" width="88" height="40" as="geometry" />
        </mxCell>
        <mxCell id="dmRQIC54Is3TJMsPzp_G-77" value="Weignt * Credit period" style="shape=partialRectangle;html=1;whiteSpace=wrap;connectable=0;overflow=hidden;fillColor=none;top=0;left=0;bottom=0;right=0;pointerEvents=1;" parent="dmRQIC54Is3TJMsPzp_G-72" vertex="1">
          <mxGeometry x="352" width="88" height="40" as="geometry" />
        </mxCell>
        <mxCell id="dmRQIC54Is3TJMsPzp_G-78" value="" style="shape=partialRectangle;collapsible=0;dropTarget=0;pointerEvents=0;fillColor=none;top=0;left=0;bottom=0;right=0;points=[[0,0.5],[1,0.5]];portConstraint=eastwest;" parent="dmRQIC54Is3TJMsPzp_G-71" vertex="1">
          <mxGeometry y="70" width="440" height="40" as="geometry" />
        </mxCell>
        <mxCell id="dmRQIC54Is3TJMsPzp_G-79" value="`P_1`" style="shape=partialRectangle;html=1;whiteSpace=wrap;connectable=0;overflow=hidden;fillColor=none;top=0;left=0;bottom=0;right=0;pointerEvents=1;" parent="dmRQIC54Is3TJMsPzp_G-78" vertex="1">
          <mxGeometry width="88" height="40" as="geometry" />
        </mxCell>
        <mxCell id="dmRQIC54Is3TJMsPzp_G-80" value="x months" style="shape=partialRectangle;html=1;whiteSpace=wrap;connectable=0;overflow=hidden;fillColor=none;top=0;left=0;bottom=0;right=0;pointerEvents=1;" parent="dmRQIC54Is3TJMsPzp_G-78" vertex="1">
          <mxGeometry x="88" width="88" height="40" as="geometry" />
        </mxCell>
        <mxCell id="dmRQIC54Is3TJMsPzp_G-81" value="y" style="shape=partialRectangle;html=1;whiteSpace=wrap;connectable=0;overflow=hidden;fillColor=none;top=0;left=0;bottom=0;right=0;pointerEvents=1;" parent="dmRQIC54Is3TJMsPzp_G-78" vertex="1">
          <mxGeometry x="176" width="88" height="40" as="geometry" />
        </mxCell>
        <mxCell id="dmRQIC54Is3TJMsPzp_G-82" value="`z = y/(Sigmay)`" style="shape=partialRectangle;html=1;whiteSpace=wrap;connectable=0;overflow=hidden;fillColor=none;top=0;left=0;bottom=0;right=0;pointerEvents=1;" parent="dmRQIC54Is3TJMsPzp_G-78" vertex="1">
          <mxGeometry x="264" width="88" height="40" as="geometry" />
        </mxCell>
        <mxCell id="dmRQIC54Is3TJMsPzp_G-83" value="`x xx z`" style="shape=partialRectangle;html=1;whiteSpace=wrap;connectable=0;overflow=hidden;fillColor=none;top=0;left=0;bottom=0;right=0;pointerEvents=1;" parent="dmRQIC54Is3TJMsPzp_G-78" vertex="1">
          <mxGeometry x="352" width="88" height="40" as="geometry" />
        </mxCell>
        <mxCell id="dmRQIC54Is3TJMsPzp_G-84" value="" style="shape=partialRectangle;collapsible=0;dropTarget=0;pointerEvents=0;fillColor=none;top=0;left=0;bottom=0;right=0;points=[[0,0.5],[1,0.5]];portConstraint=eastwest;" parent="dmRQIC54Is3TJMsPzp_G-71" vertex="1">
          <mxGeometry y="110" width="440" height="40" as="geometry" />
        </mxCell>
        <mxCell id="dmRQIC54Is3TJMsPzp_G-85" value="..." style="shape=partialRectangle;html=1;whiteSpace=wrap;connectable=0;overflow=hidden;fillColor=none;top=0;left=0;bottom=0;right=0;pointerEvents=1;" parent="dmRQIC54Is3TJMsPzp_G-84" vertex="1">
          <mxGeometry width="88" height="40" as="geometry" />
        </mxCell>
        <mxCell id="dmRQIC54Is3TJMsPzp_G-86" value="..." style="shape=partialRectangle;html=1;whiteSpace=wrap;connectable=0;overflow=hidden;fillColor=none;top=0;left=0;bottom=0;right=0;pointerEvents=1;" parent="dmRQIC54Is3TJMsPzp_G-84" vertex="1">
          <mxGeometry x="88" width="88" height="40" as="geometry" />
        </mxCell>
        <mxCell id="dmRQIC54Is3TJMsPzp_G-87" value="..." style="shape=partialRectangle;html=1;whiteSpace=wrap;connectable=0;overflow=hidden;fillColor=none;top=0;left=0;bottom=0;right=0;pointerEvents=1;" parent="dmRQIC54Is3TJMsPzp_G-84" vertex="1">
          <mxGeometry x="176" width="88" height="40" as="geometry" />
        </mxCell>
        <mxCell id="dmRQIC54Is3TJMsPzp_G-88" value="..." style="shape=partialRectangle;html=1;whiteSpace=wrap;connectable=0;overflow=hidden;fillColor=none;top=0;left=0;bottom=0;right=0;pointerEvents=1;" parent="dmRQIC54Is3TJMsPzp_G-84" vertex="1">
          <mxGeometry x="264" width="88" height="40" as="geometry" />
        </mxCell>
        <mxCell id="dmRQIC54Is3TJMsPzp_G-89" value="..." style="shape=partialRectangle;html=1;whiteSpace=wrap;connectable=0;overflow=hidden;fillColor=none;top=0;left=0;bottom=0;right=0;pointerEvents=1;" parent="dmRQIC54Is3TJMsPzp_G-84" vertex="1">
          <mxGeometry x="352" width="88" height="40" as="geometry" />
        </mxCell>
        <mxCell id="dmRQIC54Is3TJMsPzp_G-90" value="" style="shape=partialRectangle;collapsible=0;dropTarget=0;pointerEvents=0;fillColor=none;top=0;left=0;bottom=0;right=0;points=[[0,0.5],[1,0.5]];portConstraint=eastwest;" parent="dmRQIC54Is3TJMsPzp_G-71" vertex="1">
          <mxGeometry y="150" width="440" height="60" as="geometry" />
        </mxCell>
        <mxCell id="dmRQIC54Is3TJMsPzp_G-91" value="" style="shape=partialRectangle;html=1;whiteSpace=wrap;connectable=0;overflow=hidden;fillColor=none;top=0;left=0;bottom=0;right=0;pointerEvents=1;" parent="dmRQIC54Is3TJMsPzp_G-90" vertex="1">
          <mxGeometry width="88" height="60" as="geometry" />
        </mxCell>
        <mxCell id="dmRQIC54Is3TJMsPzp_G-92" value="" style="shape=partialRectangle;html=1;whiteSpace=wrap;connectable=0;overflow=hidden;fillColor=none;top=0;left=0;bottom=0;right=0;pointerEvents=1;" parent="dmRQIC54Is3TJMsPzp_G-90" vertex="1">
          <mxGeometry x="88" width="88" height="60" as="geometry" />
        </mxCell>
        <mxCell id="dmRQIC54Is3TJMsPzp_G-93" value="`Sigmay`" style="shape=partialRectangle;html=1;whiteSpace=wrap;connectable=0;overflow=hidden;fillColor=none;top=0;left=0;bottom=0;right=0;pointerEvents=1;" parent="dmRQIC54Is3TJMsPzp_G-90" vertex="1">
          <mxGeometry x="176" width="88" height="60" as="geometry" />
        </mxCell>
        <mxCell id="dmRQIC54Is3TJMsPzp_G-94" value="1" style="shape=partialRectangle;html=1;whiteSpace=wrap;connectable=0;overflow=hidden;fillColor=none;top=0;left=0;bottom=0;right=0;pointerEvents=1;" parent="dmRQIC54Is3TJMsPzp_G-90" vertex="1">
          <mxGeometry x="264" width="88" height="60" as="geometry" />
        </mxCell>
        <mxCell id="dmRQIC54Is3TJMsPzp_G-95" value="Weighted average credit period" style="shape=partialRectangle;html=1;whiteSpace=wrap;connectable=0;overflow=hidden;fillColor=none;top=0;left=0;bottom=0;right=0;pointerEvents=1;" parent="dmRQIC54Is3TJMsPzp_G-90" vertex="1">
          <mxGeometry x="352" width="88" height="60" as="geometry" />
        </mxCell>
        <mxCell id="TEneHz3vgo_vVxwvp9M7-1" value="&lt;div&gt;`2/10&amp;nbsp; \text{net}&amp;nbsp; 30` &lt;br&gt;&lt;/div&gt;&lt;div&gt;&lt;br&gt;&lt;/div&gt;&lt;div&gt;2% discount if paid within 10 days, else normal credit period is 30 days&lt;br&gt;&lt;/div&gt;" style="rounded=0;whiteSpace=wrap;html=1;" parent="1" vertex="1">
          <mxGeometry x="-320" y="90" width="250" height="100" as="geometry" />
        </mxCell>
        <mxCell id="ufE-h0je06OX1Rb8H367-1" value="if the question does not give average collection period when there are multiple plans calculate weighted average collection period otherwise if question gives average collection period no need to calculate" style="rounded=0;whiteSpace=wrap;html=1;" vertex="1" parent="1">
          <mxGeometry x="-320" y="210" width="250" height="90" as="geometry" />
        </mxCell>
        <mxCell id="ufE-h0je06OX1Rb8H367-2" value="Factoring agreement" style="rounded=1;whiteSpace=wrap;html=1;" vertex="1" parent="1">
          <mxGeometry x="1100" y="100" width="120" height="40" as="geometry" />
        </mxCell>
        <mxCell id="ufE-h0je06OX1Rb8H367-3" value="Types" style="rounded=1;whiteSpace=wrap;html=1;" vertex="1" parent="1">
          <mxGeometry x="1100" y="160" width="120" height="40" as="geometry" />
        </mxCell>
        <mxCell id="ufE-h0je06OX1Rb8H367-4" value="maturity factoring" style="rounded=1;whiteSpace=wrap;html=1;" vertex="1" parent="1">
          <mxGeometry x="1180" y="240" width="120" height="40" as="geometry" />
        </mxCell>
        <mxCell id="ufE-h0je06OX1Rb8H367-5" value="recourse factoring" style="rounded=1;whiteSpace=wrap;html=1;" vertex="1" parent="1">
          <mxGeometry x="1020" y="240" width="120" height="40" as="geometry" />
        </mxCell>
        <mxCell id="ufE-h0je06OX1Rb8H367-6" value="Non recourse factoring" style="rounded=1;whiteSpace=wrap;html=1;" vertex="1" parent="1">
          <mxGeometry x="860" y="240" width="120" height="40" as="geometry" />
        </mxCell>
        <mxCell id="ufE-h0je06OX1Rb8H367-7" value="Advance factoring" style="rounded=1;whiteSpace=wrap;html=1;" vertex="1" parent="1">
          <mxGeometry x="1340" y="240" width="120" height="40" as="geometry" />
        </mxCell>
      </root>
    </mxGraphModel>
  </diagram>
</mxfile>
